<svg width="350" height="104" viewBox="0 0 350 104" fill="none" xmlns="http://www.w3.org/2000/svg">
<path d="M15.9297 20.5352C18.4201 10.5579 28.0244 4.05705 38.2126 5.45247C128.926 17.8769 220.936 17.8732 311.649 5.44879C321.825 4.05506 331.425 10.5366 333.931 20.497L344.115 60.9677C347.259 73.4604 338.876 85.921 326.12 87.7175C225.868 101.836 124.098 101.831 23.846 87.7127C11.1027 85.918 2.71404 73.4811 5.8306 60.9953L15.9297 20.5352Z" fill="url(#paint0_linear_40_73)"/>
<path d="M38.5518 2.97559C27.0995 1.40703 16.3035 8.71454 13.5041 19.9297L3.40502 60.3898C-0.0711567 74.3164 9.28537 88.1868 23.4973 90.1882C123.981 104.339 225.985 104.344 326.469 90.1931C340.696 88.1893 350.046 74.2914 346.539 60.3576L336.356 19.887C333.538 8.69039 322.748 1.40536 311.31 2.97191C220.822 15.3655 129.04 15.3691 38.5518 2.97559Z" stroke="#0453E5" stroke-opacity="0.1" stroke-width="5"/>
<defs>
<linearGradient id="paint0_linear_40_73" x1="175" y1="3" x2="175" y2="109" gradientUnits="userSpaceOnUse">
<stop stop-color="#0453E5"/>
<stop offset="1" stop-color="#38B6FF"/>
</linearGradient>
</defs>
</svg>
