<svg width="289" height="374" viewBox="0 0 289 374" fill="none" xmlns="http://www.w3.org/2000/svg">
<path fill-rule="evenodd" clip-rule="evenodd" d="M228.095 120.628C209.131 109.039 187.533 103.245 163.302 103.245C131.344 103.245 104.478 113.254 82.7043 133.27V40C82.7043 17.9086 64.7957 0 42.7043 0H40C17.9086 0 0 17.9086 0 40V348.732C0 359.778 8.9543 368.732 20 368.732H54.7467C64.5026 368.732 72.8351 361.693 74.4654 352.075L76.9098 337.654C99.0345 361.885 127.832 374 163.302 374C187.533 374 209.131 368.381 228.095 357.144C247.059 345.555 261.809 329.577 272.345 309.208C282.88 288.489 288.148 264.961 288.148 238.623C288.148 212.285 282.88 188.931 272.345 168.563C261.809 147.844 247.059 131.866 228.095 120.628ZM200.4 323.454C213.518 319.038 219.954 320.192 222.537 323.761C230.295 334.48 215.84 348.275 204.964 355.572C194.795 362.395 181.327 367.772 165.614 367.608C149.903 367.648 136.393 362.165 126.171 355.262C115.239 347.879 100.679 333.97 108.355 323.311C110.911 319.762 117.338 318.66 130.49 323.179C142.582 327.334 154.654 328.962 165.468 329.174C176.28 329.047 188.339 327.515 200.4 323.454ZM172.086 295.227C157.016 310.297 132.582 310.297 117.512 295.227C102.442 280.157 102.442 255.723 117.512 240.653C132.582 225.583 157.016 225.583 172.086 240.653C187.156 255.723 187.156 280.157 172.086 295.227ZM183.083 300.532C181.226 298.675 179.731 296.593 178.598 294.374C186.113 285.363 188.934 273.76 187.062 262.803C196.517 256.661 209.294 257.736 217.587 266.028C227.115 275.556 227.115 291.004 217.587 300.532C208.059 310.06 192.611 310.06 183.083 300.532Z" fill="url(#paint0_linear_53_688)"/>
<defs>
<linearGradient id="paint0_linear_53_688" x1="122.6" y1="0" x2="122.6" y2="374" gradientUnits="userSpaceOnUse">
<stop stop-color="#014EE3"/>
<stop offset="1" stop-color="#38B6FF"/>
</linearGradient>
</defs>
</svg>
